<svg xmlns="http://www.w3.org/2000/svg" width="512" height="512" viewBox="0 0 512 512" fill="none">
  <defs>
    <linearGradient id="bg" x1="0" y1="0" x2="512" y2="512" gradientUnits="userSpaceOnUse">
      <stop offset="0%" stop-color="#059669"/>
      <stop offset="100%" stop-color="#047857"/>
    </linearGradient>
    <linearGradient id="bolt" x1="240" y1="120" x2="280" y2="380" gradientUnits="userSpaceOnUse">
      <stop offset="0%" stop-color="#fbbf24"/>
      <stop offset="100%" stop-color="#f59e0b"/>
    </linearGradient>
  </defs>
  <!-- Background -->
  <rect width="512" height="512" rx="96" fill="url(#bg)"/>
  <!-- Left pincer -->
  <path d="M100 100 C100 170, 140 210, 190 240 L220 255" stroke="white" stroke-width="28" stroke-linecap="round" stroke-linejoin="round" fill="none"/>
  <path d="M100 100 C130 85, 165 95, 185 130" stroke="white" stroke-width="28" stroke-linecap="round" stroke-linejoin="round" fill="none"/>
  <!-- Right pincer -->
  <path d="M412 100 C412 170, 372 210, 322 240 L292 255" stroke="white" stroke-width="28" stroke-linecap="round" stroke-linejoin="round" fill="none"/>
  <path d="M412 100 C382 85, 347 95, 327 130" stroke="white" stroke-width="28" stroke-linecap="round" stroke-linejoin="round" fill="none"/>
  <!-- Lightning bolt — filled polygon -->
  <polygon points="290,120 230,265 280,265 215,410 240,410 300,255 250,255 300,120" fill="url(#bolt)"/>
  <!-- Body/base -->
  <path d="M175 390 C200 430, 240 450, 256 450 C272 450, 312 430, 337 390" stroke="white" stroke-width="24" stroke-linecap="round" fill="none"/>
</svg>
