<?xml version="1.0" encoding="utf-8" ?><svg xmlns="http://www.w3.org/2000/svg" xmlns:xlink="http://www.w3.org/1999/xlink" width="1024" height="1024" viewBox="0 0 1024 1024"><path fill="#009A65" d="M0 0L201.145 0L822.82 0L1024 0L1024 202.594L1024 820.738L1024 1024L821.915 1024L200.58 1024L0 1024L0 822.298L0 204.655L0 0Z"/><path fill="#F0F1EF" d="M0 0L201.145 0L200.383 0.152225C193.954 1.40472 187.262 1.63402 180.791 2.53247C173.479 3.54783 165.611 5.06486 158.442 6.89113C109.941 19.7351 67.5666 49.3615 38.8507 90.5035C20.2958 117.638 9.47337 143.175 3.61203 175.709C2.04383 184.414 1.59797 197.585 0 204.655L0 0Z"/><path fill="#F0F1EF" d="M0 822.298C1.11172 828.364 1.38041 834.216 2.26333 840.234C3.44359 848.279 5.15741 856.692 7.13126 864.569C19.812 914.234 50.1034 957.601 92.3692 986.601C116.786 1003.43 144.452 1014.96 173.59 1020.47C182.21 1022.06 193.519 1022.34 200.58 1024L0 1024L0 822.298Z"/><path fill="#F0F1EF" d="M821.915 1024C830.581 1022.48 839.645 1022.41 849.121 1020.71C881.857 1014.7 912.751 1001.17 939.368 981.187C979.404 951.141 1007.41 907.8 1018.35 858.954C1021.6 844.557 1022.07 835.046 1024 820.738L1024 1024L821.915 1024Z"/><path fill="#F0F1EF" d="M822.82 0L1024 0L1024 202.594C1022.28 192.408 1022.06 182.377 1019.97 171.668C1014.19 142.086 1001.6 113.677 984.356 89.0735C955.228 47.9356 912.286 18.635 863.359 6.51315C856.179 4.75134 848.551 3.1482 841.228 2.17099C835.04 1.34523 829.021 1.09694 822.82 0Z"/><path fill="#F0F1EF" d="M449.814 148.499C452.339 148.392 453.78 148.12 455.524 150.214C457.265 155.311 449.909 164.867 446.872 169.115C429.8 192.983 409.58 215.716 396.218 241.993C388.186 257.789 396.078 268.697 405.665 280.573C409.102 284.829 409.824 289.935 410.001 295.324C410.734 317.636 382.993 323.576 379.047 344.838C374.834 367.54 392.459 380.932 407.467 394.312C415.438 401.508 425.985 412.126 431.542 420.806C439.124 432.623 443.069 446.406 442.887 460.445C442.789 471.389 438.399 483.785 435.958 494.607C430.987 516.653 423.781 539.604 419.016 561.557C370.212 588.978 345.266 612.502 331.798 669.18C326.029 667.137 318.589 663.306 312.976 660.596C268.654 637.397 233.527 589.323 222.24 540.836C207.466 477.368 217.719 407.586 243.138 348.142C282.725 256.748 357.104 184.9 449.814 148.499Z"/><path fill="#F0F1EF" d="M570.401 148.42C583.199 148.008 611.681 164.894 623.483 171.81C686.714 208.101 738.217 261.757 771.89 326.419C828.164 434.338 832.699 591.59 714.08 659.644C711 661.412 707.834 663.054 704.68 664.688C701.092 666.423 698.512 667.741 694.731 668.946C691.312 635.466 665.936 599.334 639.434 580.012C624.631 569.221 610.085 560.592 600.34 544.414C596.216 537.568 590.784 528.334 589.429 519.98C589.337 514.709 593.661 500.857 594.98 494.709C601.025 466.54 609.238 437.834 615.014 409.718C608.649 412.19 602.513 414.725 596.038 416.927C609.492 399.21 629.731 386.529 641.339 368.906C662.298 337.085 623.586 324.31 617.487 302.664C610.574 278.136 643.89 267.602 627.779 238.647C620.579 225.707 614.036 217.175 604.685 203.974C593.862 188.695 573.986 170.226 568.637 152.239C568.24 150.903 569.666 149.393 570.401 148.42Z"/><path fill="#F0F1EF" d="M578.798 572.083C628.597 584.039 671.488 623.323 679.233 675.117C687.264 728.822 626.307 747.117 584.493 752.009C583.615 752.566 583.338 752.809 582.52 753.502C594.053 754.283 635.765 755.786 642.768 763.659C644.767 765.906 645.312 768.877 645.024 771.803C644.458 777.547 640.242 782.123 635.878 785.512C622.119 796.197 603.009 801.166 586.574 806.253C588.579 807.331 590.196 806.8 593.037 807.442C597.73 807.739 602.421 808.064 607.111 808.416C624.693 809.737 661.841 813.056 659.457 837.708C655.769 857.174 626.453 867.028 610.952 871.199C585.118 878.15 545.29 881.051 527.78 856.929C515.248 839.663 521.942 816.379 526.557 797.465L536.217 757.826L559.971 654.091C564.598 634.959 569.004 615.774 573.187 596.539C574.995 588.522 577.304 580.086 578.798 572.083Z"/><path fill="#77B4A2" d="M574.652 753.007C577.582 752.717 581.685 752.156 584.493 752.009C583.615 752.566 583.338 752.809 582.52 753.502C580.419 753.713 576.694 753.461 574.652 753.007Z"/><path fill="#459884" d="M586.574 806.253C588.579 807.331 590.196 806.8 593.037 807.442C591.96 807.483 584.635 807.773 584.261 807.192C584.6 806.488 585.878 806.396 586.574 806.253Z"/><path fill="#F0F1EF" d="M443.411 752.111C416.664 749.735 375.888 739.678 358.113 718.645C348.322 707.061 347.625 693.028 348.785 678.652C351.167 649.131 368.728 621.599 391.714 603.31C420.806 580.162 451.651 569.832 487.387 562.649C481.268 634.296 475.746 705.992 470.824 777.731L466.534 831.861C466.188 836.332 465.991 848.768 464.997 852.173C460.363 868.061 437.005 877.136 422.458 874.623C402.203 871.123 380.279 863.98 365.953 849.201C357.456 839.86 358.579 827.638 368.942 820.463C385.695 808.863 413.424 807.788 433.176 807.418C434.161 806.261 434.745 807.043 436.398 806.138C419.391 800.348 402.113 795.683 387.22 784.962C378.421 779.447 375.887 762.685 388.091 759.867C404.685 756.034 426.135 754.223 443.045 753.465C443.167 753.013 443.289 752.562 443.411 752.111Z"/><path fill="#459884" d="M436.398 806.138C438.337 806.374 439.333 806.914 441.148 807.564C438.85 807.562 435.312 807.677 433.176 807.418C434.161 806.261 434.745 807.043 436.398 806.138Z"/><path fill="#77B4A2" d="M443.411 752.111C445.576 751.974 446.789 752.4 448.954 752.742C446.866 753.07 445.15 753.505 443.045 753.465C443.167 753.013 443.289 752.562 443.411 752.111Z"/><path fill="#F7BC1C" d="M540.653 105.216C541.742 105.279 541.437 107.902 541.569 109.062C541.384 118.78 539.934 130.939 539.266 140.977C537.208 172.111 534.746 203.217 531.882 234.287L512.836 468.612C537.723 459.318 562.441 449.579 586.979 439.4L509.054 783.968C506.238 796.168 503.823 808.537 501.125 820.778L490.114 870.055L484.392 897.21C483.577 901.073 482.126 908.811 480.95 912.428C479.896 910.697 480.197 909.804 479.95 907.731C479.906 902.782 481.771 887.747 482.389 882.433C484.417 865 486.175 848.248 487.625 830.759L507.903 607.236C509.044 592.569 510.313 577.912 511.709 563.267C512.906 550.965 514.565 537.16 514.953 524.884C509.007 526.661 500.385 530.476 494.36 532.739C477.462 539.086 460.911 546.156 443.995 552.505C450.121 530.142 455.59 503.391 460.552 480.676C468.693 445.038 476.491 409.323 483.946 373.535C498.122 309.816 511.823 245.992 525.046 182.068C530.354 156.34 535.891 131.078 540.653 105.216Z"/><path fill="#F5CB49" d="M478.774 916.62C479.013 914.081 479.471 910.246 479.95 907.731C480.197 909.804 479.896 910.697 480.95 912.428C480.823 914.185 480.338 915.749 479.86 917.446C479.128 917.172 479.154 917.231 478.774 916.62Z"/><path fill="#A2BE4E" d="M540.653 105.216C540.586 102.907 540.955 100.981 541.715 98.8312C541.839 102.501 542.062 105.402 541.569 109.062C541.437 107.902 541.742 105.279 540.653 105.216Z"/><path fill="#A2BE4E" d="M478.789 923.596C478.642 921.661 478.189 918.331 478.774 916.62C479.154 917.231 479.128 917.172 479.86 917.446C479.583 919.508 479.184 921.554 478.789 923.596Z"/></svg>